<!-- Generated by IcoMoon.io -->
<svg version="1.1" xmlns="http://www.w3.org/2000/svg" width="18" height="32" viewBox="0 0 18 32">
<title>angle-double-right</title>
<path d="M10.624 17.152q0 0.224-0.16 0.384l-8.352 8.352q-0.16 0.16-0.384 0.16t-0.416-0.16l-0.896-0.896q-0.192-0.192-0.192-0.416t0.192-0.416l7.008-7.008-7.008-7.040q-0.192-0.16-0.192-0.384t0.192-0.416l0.896-0.896q0.16-0.192 0.416-0.192t0.384 0.192l8.352 8.32q0.16 0.16 0.16 0.416zM17.472 17.152q0 0.224-0.16 0.384l-8.32 8.352q-0.192 0.16-0.416 0.16t-0.416-0.16l-0.896-0.896q-0.16-0.192-0.16-0.416t0.16-0.416l7.008-7.008-7.008-7.040q-0.16-0.16-0.16-0.384t0.16-0.416l0.896-0.896q0.192-0.192 0.416-0.192t0.416 0.192l8.32 8.32q0.16 0.16 0.16 0.416z"></path>
</svg>
