<!-- Generated by IcoMoon.io -->
<svg version="1.1" xmlns="http://www.w3.org/2000/svg" width="27" height="32" viewBox="0 0 27 32">
<title>facebook-squared</title>
<path d="M22.272 2.272q2.144 0 3.648 1.536t1.504 3.616v17.152q0 2.112-1.504 3.616t-3.648 1.536h-3.328v-10.656h3.552l0.512-4.128h-4.064v-2.656q0-0.992 0.416-1.472t1.632-0.512l2.176-0.032v-3.68q-1.12-0.16-3.2-0.16-2.4 0-3.872 1.408t-1.44 4.064v3.040h-3.584v4.128h3.584v10.656h-9.504q-2.144 0-3.648-1.536t-1.504-3.616v-17.152q0-2.112 1.504-3.616t3.648-1.536h17.12z"></path>
</svg>
