<!-- Generated by IcoMoon.io -->
<svg version="1.1" xmlns="http://www.w3.org/2000/svg" width="23" height="32" viewBox="0 0 23 32">
<title>user</title>
<path d="M22.848 24.992q0 1.92-1.12 3.328t-2.688 1.408h-15.232q-1.568 0-2.688-1.408t-1.12-3.328q0-1.536 0.16-2.88t0.544-2.72 1.056-2.336 1.664-1.6 2.432-0.608q2.336 2.304 5.568 2.304t5.6-2.304q1.344 0 2.4 0.608t1.664 1.6 1.056 2.336 0.576 2.72 0.128 2.88zM18.272 9.152q0 2.816-1.984 4.832t-4.864 2.016-4.832-2.016-2.016-4.832 2.016-4.864 4.832-2.016 4.864 2.016 1.984 4.864z"></path>
</svg>
